<svg xmlns="http://www.w3.org/2000/svg" width="30.658" height="30.617" viewBox="0 0 30.658 30.617">
  <path id="game-icons--clown" d="M40.024,25c-2.538,0-3.572.9-4.135,2.052a6.379,6.379,0,0,0-.543,2.454H44.7a6.406,6.406,0,0,0-.57-2.45C43.55,25.9,42.516,25,40.024,25M33.47,30.7l.6,1.59H46.5l.252-1.59Zm-4.347.63a1.773,1.773,0,0,0-.434.066,1.315,1.315,0,0,0-.856.7c-.034.073-.038.119.027.278a3.827,3.827,0,0,0,.4.676,5.853,5.853,0,0,1,.548.9,1.733,1.733,0,0,1,.123,1.233,2.388,2.388,0,0,1-1.105,1.3,9.1,9.1,0,0,1-1.459.649,6.445,6.445,0,0,0-1.2.557.86.86,0,0,0-.457.6,1.569,1.569,0,0,0,.51,1.239c.394.464.962.941,1.444,1.418a1.7,1.7,0,0,1,.4,1.372,7.3,7.3,0,0,0-.035.9c.01.066.023.066.017.06s.009.02.142.04a4.976,4.976,0,0,0,1.636-.278v-.08a15.582,15.582,0,0,1,3.459-10.02,5.543,5.543,0,0,0-2.306-1.484,3.485,3.485,0,0,0-.695-.119,1.3,1.3,0,0,0-.16-.007Zm21.644.007a3.094,3.094,0,0,0-.7.126,5.529,5.529,0,0,0-2.306,1.478,15.583,15.583,0,0,1,3.459,10.02v.08a4.985,4.985,0,0,0,1.637.278c.133-.02.146-.046.139-.04s.007.007.02-.06a7.448,7.448,0,0,0-.04-.9,1.723,1.723,0,0,1,.4-1.372c.484-.477,1.054-.954,1.445-1.418a1.55,1.55,0,0,0,.51-1.239.846.846,0,0,0-.457-.6,6.428,6.428,0,0,0-1.2-.557,9.1,9.1,0,0,1-1.458-.649,2.4,2.4,0,0,1-1.107-1.3,1.719,1.719,0,0,1,.126-1.233,5.794,5.794,0,0,1,.543-.9,3.719,3.719,0,0,0,.4-.676c.06-.159.06-.205.027-.278a1.339,1.339,0,0,0-.855-.7,1.517,1.517,0,0,0-.437-.06ZM33.4,33.483a14.239,14.239,0,0,0-3.38,9.477,15.417,15.417,0,0,0,.61,4.347,4.33,4.33,0,0,1,3.433-1.5,8.188,8.188,0,0,1,2.8.543,3.181,3.181,0,0,1,.669-1.644,5.924,5.924,0,0,0-1.743-.358,10.535,10.535,0,0,0-3,.762l-.782.265V44.55a11.387,11.387,0,0,1,.205-1.71,23.032,23.032,0,0,1,.616-2.571,9.959,9.959,0,0,1,1.06-2.452,3.564,3.564,0,0,1,.775-.881l1.12-2.459,1.12,2.459a3.564,3.564,0,0,1,.775.881,9.959,9.959,0,0,1,1.06,2.452,23.033,23.033,0,0,1,.616,2.571c.046.252.08.484.113.7a2.949,2.949,0,0,1,1.113,0c.033-.212.066-.451.113-.7a23.033,23.033,0,0,1,.616-2.571,9.958,9.958,0,0,1,1.06-2.452,3.564,3.564,0,0,1,.775-.881l1.12-2.459,1.12,2.459a3.564,3.564,0,0,1,.775.881,9.959,9.959,0,0,1,1.06,2.452,23.033,23.033,0,0,1,.616,2.571,11.388,11.388,0,0,1,.205,1.71v.828l-.782-.265a10.535,10.535,0,0,0-3-.762,5.964,5.964,0,0,0-1.743.358,3.181,3.181,0,0,1,.663,1.644,8.223,8.223,0,0,1,2.8-.543,4.33,4.33,0,0,1,3.433,1.5,15.417,15.417,0,0,0,.61-4.347,14.239,14.239,0,0,0-3.38-9.477Zm2.386,4.241c-.232,0-.543.205-.888.736a9.128,9.128,0,0,0-.928,2.154,20.206,20.206,0,0,0-.577,2.432c-.046.245-.073.444-.1.649a11.758,11.758,0,0,1,1.783-.477,1.06,1.06,0,1,1,1.418,0,11.759,11.759,0,0,1,1.783.477c-.027-.205-.053-.4-.1-.649a20.206,20.206,0,0,0-.577-2.432,9.128,9.128,0,0,0-.928-2.154c-.345-.53-.656-.736-.888-.736m8.483,0c-.232,0-.543.205-.888.736a9.128,9.128,0,0,0-.928,2.154,20.206,20.206,0,0,0-.577,2.432c-.046.245-.073.444-.1.649a11.758,11.758,0,0,1,1.783-.477,1.06,1.06,0,1,1,1.418,0,11.759,11.759,0,0,1,1.783.477c-.027-.205-.053-.4-.1-.649a20.207,20.207,0,0,0-.577-2.432,9.128,9.128,0,0,0-.928-2.154c-.345-.53-.656-.736-.888-.736M40.024,44.55a2.114,2.114,0,0,0-1.71,3.367,3.181,3.181,0,0,1,2.956-2.962,2.121,2.121,0,0,0-1.246-.4M34.06,47a2.835,2.835,0,0,0-2.936,1.756c1.677,4.1,5.063,6.859,8.9,6.859s7.224-2.763,8.9-6.859A2.835,2.835,0,0,0,45.988,47a7.64,7.64,0,0,0-2.962.7,3.172,3.172,0,0,1-6,0A7.64,7.64,0,0,0,34.06,47m.113,1.484a6.884,6.884,0,0,0,5.852,3.685,6.884,6.884,0,0,0,5.852-3.685l1.021.61a8.11,8.11,0,0,1-6.872,4.268A8.11,8.11,0,0,1,33.152,49.1Z" transform="translate(-24.695 -25)" fill="#262626"/>
</svg>
