<svg xmlns="http://www.w3.org/2000/svg" width="26.5" height="26.5" viewBox="0 0 26.5 26.5">
  <path id="emojione-monotone--film-projector" d="M28.5,10.457a6.2,6.2,0,0,0-11.948-2.33A7.325,7.325,0,1,0,8.942,16.64a1.1,1.1,0,0,0-.176.583v3.664L4.819,18.915v8.458L8.8,25.38a1.154,1.154,0,0,0,1.09.864h3.383V28.5h5.075V26.244H21.17A1.153,1.153,0,0,0,22.3,25.117V20.043l2.819.564V16.659l-2.819.564a1.1,1.1,0,0,0-.17-.572c.057,0,.112.009.17.009a6.2,6.2,0,0,0,6.2-6.2m-1.162.9a1.422,1.422,0,1,1-1.422-1.387,1.422,1.422,0,0,1,1.422,1.387M24.5,5.9A1.421,1.421,0,1,1,23.075,7.32,1.421,1.421,0,0,1,24.5,5.9m-.926,4.773a.356.356,0,1,1-.356-.356.356.356,0,0,1,.356.356m-.711-1.366a.356.356,0,1,1-.356.355.356.356,0,0,1,.356-.355m-.549,1.721a.356.356,0,1,1-.356.355.356.356,0,0,1,.356-.355m-.194-1.366a.355.355,0,1,1-.356-.354.355.355,0,0,1,.356.354m-.356,1.01a.355.355,0,1,1-.356-.355.355.355,0,0,1,.356.355m-9.832-6.73a1.68,1.68,0,1,1-1.633,1.679,1.68,1.68,0,0,1,1.633-1.679M10.832,9.584a.42.42,0,1,1-.42-.42.42.42,0,0,1,.42.42M9.992,7.97a.42.42,0,1,1-.421.42.42.42,0,0,1,.421-.42M9.343,10a.42.42,0,1,1-.421.419A.42.42,0,0,1,9.343,10M9.113,8.39a.42.42,0,1,1-.42-.408.42.42,0,0,1,.42.408m-.42,1.194a.42.42,0,1,1-.42-.42.42.42,0,0,1,.42.42M5.053,12.077a1.68,1.68,0,1,1,1.68-1.68,1.68,1.68,0,0,1-1.68,1.68m0-6.455A1.68,1.68,0,1,1,6.733,7.3a1.68,1.68,0,0,1-1.68-1.68m4.277,9.814a1.68,1.68,0,1,1,1.681-1.68,1.68,1.68,0,0,1-1.681,1.68m4.277-6.719a1.68,1.68,0,1,1-1.68,1.68,1.681,1.681,0,0,1,1.68-1.68M12.15,16.1a7.349,7.349,0,0,0,4.086-4.331A6.21,6.21,0,0,0,19.725,16.1Zm6.529-3.313A1.421,1.421,0,1,1,20.1,11.361a1.421,1.421,0,0,1-1.421,1.421m0-5.463A1.42,1.42,0,1,1,19.1,8.325a1.421,1.421,0,0,1-.416-1.005m2.2,6.883A1.421,1.421,0,1,1,22.3,15.625,1.421,1.421,0,0,1,20.876,14.2" transform="translate(-2 -2)" fill="#262626"/>
</svg>
