<svg xmlns="http://www.w3.org/2000/svg" width="33.088" height="32.405" viewBox="0 0 33.088 32.405">
  <path id="game-icons--drama-masks" d="M47.618,30.625a21.111,21.111,0,0,1-5.874,4.947,20.786,20.786,0,0,1-7.7,2.658q.218.645.476,1.274a17.477,17.477,0,0,0,2.542-.1l.661-.107.589-.089.015.711q-.018.655-.076,1.307l3.954.618a1.753,1.753,0,0,1,1.947,1.8c.417-.145.821-.3,1.207-.469l.67-.292.162.714a23.742,23.742,0,0,1,.515,3.356,20.031,20.031,0,0,0,6.1-4.667,20.342,20.342,0,0,0-2.732-8.227q-.077-.133-.155-.264l-1.925,4.984a1.756,1.756,0,1,1-1.674.707l2.719-7.042a22.487,22.487,0,0,0-1.414-1.811ZM21.992,36.777a22.032,22.032,0,0,0-1.479,3.941,19.4,19.4,0,0,0-.2,10.016,14.7,14.7,0,0,1,2.745-.281c.13,0,.258,0,.386,0a12.632,12.632,0,0,1,4.188.8q-.115-1.191-.116-2.389a23.786,23.786,0,0,1,.628-5.512l.172-.727L29,42.95a19.549,19.549,0,0,0,7.421,1.761,22.321,22.321,0,0,0,.657-4.1,20.789,20.789,0,0,1-8.129-.574,21.121,21.121,0,0,1-6.952-3.258Zm16.1,5.741q-.161,1.095-.434,2.213a21.857,21.857,0,0,0,3.212-.277,1.744,1.744,0,0,1-.107-1.519Zm-12.39.031.29,1.272-1.508.343a1.624,1.624,0,1,1-2.176.5l-1.471.334-.288-1.272L25.7,42.548ZM52.84,44.141a21.892,21.892,0,0,1-6.069,4.225c0,.167.006.335.006.5q0,.962-.072,1.894a5.378,5.378,0,0,0,3.166-.655c1.81-1.045,2.836-3.191,2.968-5.968Zm-23.661.209a22.881,22.881,0,0,0-.447,4.441l.009-.024a33.354,33.354,0,0,0,6.651,1.493l.524.061.05.524.4,4.2-1.3.122L34.885,53.3A1.621,1.621,0,0,1,32.7,51.38a1.644,1.644,0,0,1,.074-.214,34.707,34.707,0,0,1-4.009-1.015A19.2,19.2,0,0,0,31.286,59c1.562,2.555,3.64,4.035,5.863,4.035s4.3-1.48,5.864-4.035a19.1,19.1,0,0,0,2.507-8.635q-1.663.491-3.369.814a1.619,1.619,0,0,1-1.914,2.191q-.075-.02-.148-.048l-.175,1.848-1.3-.122.4-4.2.05-.524.524-.061a33.116,33.116,0,0,0,5.981-1.279V48.87a22.578,22.578,0,0,0-.423-4.312,21.635,21.635,0,0,1-7.758,1.385,21.288,21.288,0,0,1-8.209-1.593Zm-6.11,7.4a13.583,13.583,0,0,0-2.331.231,6.489,6.489,0,0,0,4.12,4.19,5.551,5.551,0,0,0,3.688-.367,21.623,21.623,0,0,1-.722-3.07,11.1,11.1,0,0,0-4.755-.984Zm9.6,5.6H41.8c-2.8,3.114-6.468,2.992-9.135,0" transform="translate(-19.752 -30.625)" fill="#262626"/>
</svg>
