<svg xmlns="http://www.w3.org/2000/svg" width="31.001" height="24.802" viewBox="0 0 31.001 24.802">
  <path id="mdi--family" d="M4.619,11.937A1.364,1.364,0,0,0,3.611,11.5a1.511,1.511,0,0,0-1.426.9,1.4,1.4,0,0,0,.264,1.721A29.008,29.008,0,0,1,5.937,17.61a6.369,6.369,0,0,1,.946,3.782,5.131,5.131,0,0,0,2.325,4.573A9.151,9.151,0,0,0,12.075,27.5V21.47a4.956,4.956,0,0,0-1.488-3.643m13.827.078a4.892,4.892,0,0,0-1.488,3.565v6.092a9.374,9.374,0,0,0,3.751-2.434A5.251,5.251,0,0,0,28.2,21.392a6.319,6.319,0,0,1,.884-3.782,4.283,4.283,0,0,1,.822-.946c.357-.388.729-.76,1.1-1.1.357-.326.713-.667,1.054-1.008l.512-.434A1.4,1.4,0,0,0,33,13.1a1.593,1.593,0,0,0-.434-1.132,1.451,1.451,0,0,0-1.116-.465,1.38,1.38,0,0,0-1.07.434M17.5,28.8a10.857,10.857,0,0,0,3.1-.434V22.834a3.167,3.167,0,0,0-.915-2.31A2.914,2.914,0,0,0,17.5,19.5a2.826,2.826,0,0,0-2.139.946,2.983,2.983,0,0,0-.961,2.248v5.673a10.857,10.857,0,0,0,3.1.434M12.85,10.976A2.325,2.325,0,1,1,10.525,8.65a2.322,2.322,0,0,1,2.325,2.325m13.951,0A2.325,2.325,0,1,1,24.476,8.65,2.322,2.322,0,0,1,26.8,10.976m-6.976-4.65A2.325,2.325,0,1,1,17.5,4a2.322,2.322,0,0,1,2.325,2.325m0,8.526A2.325,2.325,0,1,1,17.5,12.526a2.322,2.322,0,0,1,2.325,2.325" transform="translate(-2.001 -4)" fill="#262626"/>
</svg>
